<svg width="25" height="26" viewBox="0 0 25 26" fill="none" xmlns="http://www.w3.org/2000/svg">
<path fill-rule="evenodd" clip-rule="evenodd" d="M8.12026 7.77687C8.27995 6.43805 9.41931 5.40002 10.8011 5.40002C12.1829 5.40002 13.3223 6.43805 13.482 7.77687C15.7344 8.79794 17.3011 11.066 17.3011 13.7V18.2159L18.8046 21.1945C19.1067 21.7931 18.6717 22.5 18.0011 22.5H13.3475C12.9768 23.5487 11.9767 24.3 10.8011 24.3C9.62553 24.3 8.62541 23.5487 8.25476 22.5H3.60112C2.93059 22.5 2.49552 21.7931 2.79768 21.1945L4.30112 18.2159V13.7C4.30112 11.066 5.86786 8.79794 8.12026 7.77687ZM15.5977 18.8357L16.5387 20.7H5.06356L6.00457 18.8357C6.06805 18.71 6.10112 18.5711 6.10112 18.4302V13.7C6.10112 11.1043 8.20539 9.00002 10.8011 9.00002C13.3969 9.00002 15.5011 11.1043 15.5011 13.7V18.4302C15.5011 18.5711 15.5342 18.71 15.5977 18.8357Z" fill="#fff"/>
<rect x="13.5" y="0.900024" width="10.8" height="10.8" rx="5.4" fill="#FC5A5A"/>
</svg>
