<svg width="16" height="16" viewBox="0 0 16 16" fill="none" xmlns="http://www.w3.org/2000/svg">
<path fill-rule="evenodd" clip-rule="evenodd" d="M3.12185 11.7581C0.737052 9.3733 0.737052 5.50678 3.12185 3.12198C5.50665 0.737174 9.37318 0.737174 11.758 3.12198C13.9378 5.30181 14.1252 8.71962 12.32 11.1123L14.7295 13.5217C15.358 14.1502 14.4152 15.093 13.7867 14.4645L11.406 12.0839C9.00678 14.1375 5.39262 14.0289 3.12185 11.7581ZM10.8152 4.06478C8.95107 2.20068 5.92876 2.20068 4.06466 4.06478C2.20056 5.92889 2.20056 8.95119 4.06466 10.8153C5.92876 12.6794 8.95107 12.6794 10.8152 10.8153C12.6793 8.95119 12.6793 5.92889 10.8152 4.06478Z" fill="#fff"/>
</svg>
